<svg width="236" height="48" viewBox="0 0 236 48" fill="none" xmlns="http://www.w3.org/2000/svg">
  <path
    d="M32.1691 3.26187C34.8925 4.22633 37.3993 5.7177 39.5463 7.65084L32.1859 15.8254C31.1123 14.8588 29.859 14.1131 28.4972 13.631C27.1356 13.1488 25.6923 12.9395 24.2497 13.0151C22.8072 13.0907 21.3937 13.4497 20.0899 14.0716C18.786 14.6934 17.6174 15.5661 16.6508 16.6396L8.47624 9.27915C10.4094 7.13218 12.7466 5.38694 15.3542 4.14311C17.9619 2.89936 20.7889 2.18142 23.674 2.03012C26.5592 1.87901 29.4457 2.29752 32.1691 3.26187Z"
    fill="#F1682D" />
  <path
    d="M8.47624 9.27915C6.54309 11.4261 5.05172 13.933 4.08727 16.6563C3.12291 19.3797 2.7044 22.2663 2.85552 25.1514C3.00681 28.0366 3.72475 30.8636 4.9685 33.4712C6.21233 36.0788 7.95757 38.4161 10.1045 40.3492C12.2515 42.2824 14.7584 43.7737 17.4817 44.7382C20.2051 45.7025 23.0916 46.121 25.9768 45.9699C28.862 45.8186 31.689 45.1007 34.2966 43.8569C36.9042 42.6131 39.2415 40.8679 41.1746 38.7209L33 31.3605C32.0334 32.434 30.8649 33.3066 29.561 33.9284C28.2572 34.5504 26.8437 34.9094 25.4011 34.985C23.9586 35.0606 22.5153 34.8513 21.1536 34.3691C19.7919 33.8869 18.5385 33.1412 17.465 32.1746C16.3915 31.208 15.5188 30.0395 14.897 28.7356C14.2751 27.4318 13.9161 26.0183 13.8405 24.5757C13.7649 23.1332 13.9742 21.6899 14.4564 20.3282C14.9385 18.9665 15.6842 17.7131 16.6508 16.6396L8.47624 9.27915Z"
    fill="#FFCC01" />
  <path
    d="M29.5093 18.798C26.6363 16.2112 22.2103 16.4431 19.6234 19.3161L30.0274 28.6839C32.6143 25.8109 32.3823 21.3849 29.5093 18.798Z"
    fill="#FFCC01" />
  <path
    d="M20.1415 29.202C17.2685 26.6152 17.0366 22.1891 19.6234 19.3161L30.0274 28.6839C27.4406 31.5569 23.0145 31.7889 20.1415 29.202Z"
    fill="#F1682D" />
  <path
    d="M53.372 31.47H64.46C65.012 31.47 65.42 31.494 65.684 31.542C65.972 31.566 66.296 31.674 66.656 31.866C67.304 32.202 67.628 33.138 67.628 34.674C67.628 36.354 67.184 37.338 66.296 37.626C65.888 37.77 65.264 37.842 64.424 37.842H50.168C48.488 37.842 47.504 37.386 47.216 36.474C47.072 36.09 47 35.478 47 34.638V14.622C47 13.398 47.228 12.57 47.684 12.138C48.14 11.682 49.004 11.454 50.276 11.454H64.46C65.012 11.454 65.42 11.478 65.684 11.526C65.972 11.55 66.296 11.658 66.656 11.85C67.304 12.186 67.628 13.122 67.628 14.658C67.628 16.338 67.184 17.322 66.296 17.61C65.888 17.754 65.264 17.826 64.424 17.826H53.372V21.462H60.5C61.052 21.462 61.46 21.486 61.724 21.534C62.012 21.558 62.336 21.666 62.696 21.858C63.344 22.194 63.668 23.13 63.668 24.666C63.668 26.346 63.212 27.33 62.3 27.618C61.892 27.762 61.268 27.834 60.428 27.834H53.372V31.47Z"
    fill="black" />
  <path
    d="M76.149 21.39C77.277 19.686 78.633 18.834 80.217 18.834C82.665 18.834 84.489 19.878 85.689 21.966C85.953 21.606 86.265 21.234 86.625 20.85C87.009 20.442 87.609 20.01 88.425 19.554C89.241 19.074 90.081 18.834 90.945 18.834C92.865 18.834 94.473 19.578 95.769 21.066C97.065 22.53 97.713 24.966 97.713 28.374V34.674C97.713 35.226 97.689 35.646 97.641 35.934C97.617 36.198 97.509 36.51 97.317 36.87C97.005 37.518 96.081 37.842 94.545 37.842C93.033 37.842 92.109 37.506 91.773 36.834C91.605 36.474 91.497 36.162 91.449 35.898C91.425 35.61 91.413 35.19 91.413 34.638V28.338C91.413 26.25 90.669 25.206 89.181 25.206C88.341 25.206 87.765 25.482 87.453 26.034C87.165 26.586 87.021 27.366 87.021 28.374V34.674C87.021 35.25 86.997 35.67 86.949 35.934C86.925 36.198 86.817 36.51 86.625 36.87C86.289 37.518 85.353 37.842 83.817 37.842C82.305 37.842 81.381 37.506 81.045 36.834C80.877 36.474 80.769 36.162 80.721 35.898C80.697 35.61 80.685 35.19 80.685 34.638V28.338C80.685 26.25 79.941 25.206 78.453 25.206C77.013 25.206 76.293 26.25 76.293 28.338V34.71C76.293 35.262 76.269 35.682 76.221 35.97C76.197 36.234 76.089 36.546 75.897 36.906C75.537 37.53 74.601 37.842 73.089 37.842C71.577 37.842 70.653 37.518 70.317 36.87C70.149 36.51 70.041 36.198 69.993 35.934C69.969 35.67 69.957 35.25 69.957 34.674V22.002C69.957 21.45 69.969 21.042 69.993 20.778C70.041 20.49 70.161 20.178 70.353 19.842C70.713 19.194 71.565 18.87 72.909 18.87C74.253 18.87 75.129 19.086 75.537 19.518C75.945 19.95 76.149 20.574 76.149 21.39Z"
    fill="black" />
  <path
    d="M112.89 20.886C113.034 19.542 113.982 18.87 115.734 18.87C116.67 18.87 117.366 18.942 117.822 19.086C118.278 19.23 118.59 19.482 118.758 19.842C118.95 20.202 119.058 20.526 119.082 20.814C119.13 21.078 119.154 21.486 119.154 22.038V34.638C119.154 35.19 119.13 35.61 119.082 35.898C119.058 36.162 118.962 36.474 118.794 36.834C118.458 37.458 117.63 37.77 116.31 37.77C115.014 37.77 114.138 37.614 113.682 37.302C113.25 36.966 112.998 36.486 112.926 35.862C112.038 37.134 110.55 37.77 108.462 37.77C106.398 37.77 104.478 36.822 102.702 34.926C100.926 33.03 100.038 30.834 100.038 28.338C100.038 25.818 100.926 23.622 102.702 21.75C104.502 19.854 106.47 18.906 108.606 18.906C109.422 18.906 110.166 19.05 110.838 19.338C111.51 19.626 111.978 19.902 112.242 20.166C112.506 20.406 112.722 20.646 112.89 20.886ZM106.338 28.374C106.338 29.166 106.65 29.886 107.274 30.534C107.898 31.158 108.654 31.47 109.542 31.47C110.43 31.47 111.162 31.146 111.738 30.498C112.338 29.85 112.638 29.142 112.638 28.374C112.638 27.582 112.35 26.85 111.774 26.178C111.222 25.506 110.466 25.17 109.506 25.17C108.57 25.17 107.802 25.506 107.202 26.178C106.626 26.85 106.338 27.582 106.338 28.374Z"
    fill="black" />
  <path
    d="M122.023 22.038C122.023 21.486 122.035 21.078 122.059 20.814C122.107 20.526 122.215 20.202 122.383 19.842C122.719 19.218 123.655 18.906 125.191 18.906C126.343 18.906 127.159 19.11 127.639 19.518C128.047 19.854 128.263 20.37 128.287 21.066C128.311 21.306 128.323 21.654 128.323 22.11V34.71C128.323 35.262 128.299 35.682 128.251 35.97C128.227 36.234 128.119 36.546 127.927 36.906C127.615 37.53 126.691 37.842 125.155 37.842C123.643 37.842 122.719 37.518 122.383 36.87C122.215 36.51 122.107 36.198 122.059 35.934C122.035 35.67 122.023 35.25 122.023 34.674V22.038ZM127.927 15.378C127.759 15.714 127.447 15.954 126.991 16.098C126.535 16.242 125.923 16.314 125.155 16.314C124.411 16.314 123.811 16.242 123.355 16.098C122.899 15.954 122.575 15.702 122.383 15.342C122.215 14.982 122.107 14.67 122.059 14.406C122.035 14.118 122.023 13.698 122.023 13.146C122.023 12.594 122.035 12.186 122.059 11.922C122.107 11.634 122.215 11.322 122.383 10.986C122.719 10.338 123.655 10.014 125.191 10.014C126.703 10.014 127.615 10.338 127.927 10.986C128.119 11.346 128.227 11.67 128.251 11.958C128.299 12.222 128.323 12.63 128.323 13.182C128.323 13.734 128.299 14.154 128.251 14.442C128.227 14.706 128.119 15.018 127.927 15.378Z"
    fill="black" />
  <path
    d="M131.199 13.11C131.199 12.558 131.211 12.15 131.235 11.886C131.283 11.598 131.391 11.274 131.559 10.914C131.895 10.266 132.831 9.942 134.367 9.942C135.831 9.942 136.743 10.266 137.103 10.914C137.295 11.274 137.403 11.598 137.427 11.886C137.475 12.174 137.499 12.594 137.499 13.146V29.814C137.499 30.678 137.571 31.23 137.715 31.47C137.859 31.686 138.171 31.794 138.651 31.794C139.155 31.794 139.491 31.818 139.659 31.866C139.827 31.89 140.031 31.986 140.271 32.154C140.751 32.466 140.991 33.318 140.991 34.71C140.991 36.222 140.751 37.146 140.271 37.482C139.647 37.914 138.159 37.986 135.807 37.698C133.959 37.458 132.759 36.846 132.207 35.862C131.535 34.686 131.199 32.814 131.199 30.246V13.11Z"
    fill="black" />
  <path
    d="M159.285 12.426C159.477 12.066 159.801 11.814 160.257 11.67C160.713 11.526 161.289 11.454 161.985 11.454C162.681 11.454 163.233 11.514 163.641 11.634C164.049 11.754 164.361 11.898 164.577 12.066C164.793 12.234 164.961 12.474 165.081 12.786C165.201 13.194 165.261 13.818 165.261 14.658V34.638C165.261 35.19 165.237 35.61 165.189 35.898C165.165 36.162 165.057 36.474 164.865 36.834C164.529 37.482 163.593 37.806 162.057 37.806C160.377 37.806 159.393 37.362 159.105 36.474C158.961 36.066 158.889 35.442 158.889 34.602V27.294H149.349V34.638C149.349 35.19 149.325 35.61 149.277 35.898C149.253 36.162 149.145 36.474 148.953 36.834C148.617 37.482 147.681 37.806 146.145 37.806C144.465 37.806 143.481 37.362 143.193 36.474C143.049 36.066 142.977 35.442 142.977 34.602V14.622C142.977 14.07 142.989 13.662 143.013 13.398C143.061 13.11 143.181 12.786 143.373 12.426C143.709 11.778 144.645 11.454 146.181 11.454C147.861 11.454 148.857 11.898 149.169 12.786C149.289 13.194 149.349 13.818 149.349 14.658V22.002H158.889V14.622C158.889 14.07 158.901 13.662 158.925 13.398C158.973 13.11 159.093 12.786 159.285 12.426Z"
    fill="black" />
  <path
    d="M180.46 20.886C180.604 19.542 181.552 18.87 183.304 18.87C184.24 18.87 184.936 18.942 185.392 19.086C185.848 19.23 186.16 19.482 186.328 19.842C186.52 20.202 186.628 20.526 186.652 20.814C186.7 21.078 186.724 21.486 186.724 22.038V34.638C186.724 35.19 186.7 35.61 186.652 35.898C186.628 36.162 186.532 36.474 186.364 36.834C186.028 37.458 185.2 37.77 183.88 37.77C182.584 37.77 181.708 37.614 181.252 37.302C180.82 36.966 180.568 36.486 180.496 35.862C179.608 37.134 178.12 37.77 176.032 37.77C173.968 37.77 172.048 36.822 170.272 34.926C168.496 33.03 167.608 30.834 167.608 28.338C167.608 25.818 168.496 23.622 170.272 21.75C172.072 19.854 174.04 18.906 176.176 18.906C176.992 18.906 177.736 19.05 178.408 19.338C179.08 19.626 179.548 19.902 179.812 20.166C180.076 20.406 180.292 20.646 180.46 20.886ZM173.908 28.374C173.908 29.166 174.22 29.886 174.844 30.534C175.468 31.158 176.224 31.47 177.112 31.47C178 31.47 178.732 31.146 179.308 30.498C179.908 29.85 180.208 29.142 180.208 28.374C180.208 27.582 179.92 26.85 179.344 26.178C178.792 25.506 178.036 25.17 177.076 25.17C176.14 25.17 175.372 25.506 174.772 26.178C174.196 26.85 173.908 27.582 173.908 28.374Z"
    fill="black" />
  <path
    d="M213.858 19.014C215.394 19.686 216.162 20.514 216.162 21.498C216.162 21.906 215.97 22.566 215.586 23.478C215.202 24.366 214.878 25.146 214.614 25.818L210.654 35.466C210.294 36.522 209.694 37.266 208.854 37.698C208.494 37.866 208.038 37.95 207.486 37.95C206.934 37.95 206.394 37.746 205.866 37.338C205.362 36.906 205.026 36.474 204.858 36.042L204.57 35.43C204.378 34.95 203.67 33.078 202.446 29.814C202.206 30.39 201.846 31.338 201.366 32.658C200.91 33.954 200.61 34.77 200.466 35.106C200.346 35.418 200.262 35.634 200.214 35.754C200.19 35.85 200.094 36.042 199.926 36.33C199.758 36.618 199.566 36.87 199.35 37.086C198.774 37.662 198.114 37.95 197.37 37.95C196.626 37.95 196.002 37.746 195.498 37.338C194.994 36.906 194.658 36.474 194.49 36.042L189.054 22.794C188.814 22.074 188.694 21.606 188.694 21.39C188.694 20.43 189.378 19.674 190.746 19.122C191.514 18.81 192.138 18.654 192.618 18.654C193.098 18.654 193.482 18.762 193.77 18.978C194.082 19.17 194.298 19.374 194.418 19.59C194.538 19.782 194.634 19.986 194.706 20.202C195.114 21.162 195.966 23.418 197.262 26.97L199.386 21.138C199.53 20.658 199.794 20.238 200.178 19.878C200.874 19.182 201.582 18.834 202.302 18.834C203.022 18.834 203.634 19.026 204.138 19.41C204.666 19.794 205.026 20.178 205.218 20.562L205.506 21.174C206.706 24.534 207.414 26.454 207.63 26.934L209.826 20.958C210.402 19.422 211.266 18.654 212.418 18.654C212.874 18.654 213.354 18.774 213.858 19.014Z"
    fill="black" />
  <path
    d="M229.301 28.338L234.089 32.298C234.689 32.802 235.061 33.186 235.205 33.45C235.373 33.714 235.457 33.966 235.457 34.206C235.457 34.782 235.085 35.562 234.341 36.546C233.525 37.554 232.805 38.058 232.181 38.058C231.653 38.058 230.921 37.71 229.985 37.014L229.625 36.762C229.073 36.306 228.221 35.514 227.069 34.386C225.917 33.234 225.041 32.418 224.441 31.938V34.71C224.441 35.262 224.417 35.682 224.369 35.97C224.345 36.234 224.237 36.546 224.045 36.906C223.733 37.53 222.809 37.842 221.273 37.842C219.761 37.842 218.837 37.518 218.501 36.87C218.333 36.51 218.225 36.198 218.177 35.934C218.153 35.646 218.141 35.226 218.141 34.674V13.11C218.141 12.558 218.153 12.15 218.177 11.886C218.225 11.598 218.333 11.274 218.501 10.914C218.837 10.266 219.773 9.942 221.309 9.942C222.461 9.942 223.277 10.146 223.757 10.554C224.165 10.89 224.381 11.418 224.405 12.138C224.429 12.354 224.441 12.69 224.441 13.146V24.558C224.873 24.198 225.521 23.586 226.385 22.722C227.273 21.858 227.933 21.246 228.365 20.886L228.797 20.598C229.637 19.95 230.357 19.626 230.957 19.626C231.557 19.626 232.241 20.118 233.009 21.102C233.801 22.062 234.197 22.818 234.197 23.37C234.197 23.922 233.753 24.57 232.865 25.314L229.301 28.338Z"
    fill="black" />
</svg>
  