<?xml version="1.0" encoding="utf-8"?>
<!-- Generator: Adobe Illustrator 26.0.1, SVG Export Plug-In . SVG Version: 6.00 Build 0)  -->
<svg version="1.1" id="Layer_1" xmlns="http://www.w3.org/2000/svg" xmlns:xlink="http://www.w3.org/1999/xlink" x="0px" y="0px"
	 viewBox="0 0 1151.4 413.6" style="enable-background:new 0 0 1151.4 413.6;" xml:space="preserve">
<style type="text/css">
	.st0{fill:#FFFFFF;}
	.st1{fill:#2D8CFE;}
	.st2{fill:#151B85;}
</style>
<g>
	<g>
		<path class="st2" d="M527.7,142.3c-20.2,0-35.9,5.9-47.3,17.8v-14h-57.9v183.9h57.9v-101c0-11.9,2.8-20.7,8.5-26.7
			c5.7-5.9,13.3-8.9,22.9-8.9c4.8,0,9.1,0.8,12.9,2.3c3.8,1.5,6.9,3.7,9.5,6.4l34.4-43.5c-5-5.5-10.9-9.6-17.6-12.3
			C544.3,143.6,536.5,142.3,527.7,142.3z"/>
		<path class="st2" d="M693.4,252c0,9.6-2.5,17.1-7.6,22.5c-5,5.4-11.9,8.1-20.4,8.1c-6.1,0-11.2-1.3-15.5-3.8
			c-4.3-2.5-7.5-6.1-9.6-10.6c-2.1-4.5-3.2-10-3.2-16.3V146.1h-57.9v106.7c0,15.9,3.7,30,11,42.2c7.3,12.2,17.5,21.8,30.5,28.7
			c13,6.9,27.9,10.4,44.8,10.4c16.9,0,31.8-3.5,44.6-10.4c12.9-6.9,22.9-16.5,30.3-28.7c7.3-12.2,11-26.4,11-42.6V146.1h-57.9V252z"
			/>
		<path class="st2" d="M939.8,154.8c-13.5-8.3-28.9-12.5-46.3-12.5c-12.4,0-23.7,2.5-34,7.6c-5.1,2.5-9.8,5.5-14,8.9v-12.7h-57.9
			v261.4h57.1v-90.1c4.4,3.5,9.3,6.6,14.8,9.1c10.3,4.8,21.7,7.2,34,7.2c17.4,0,32.8-4.2,46.3-12.5c13.5-8.3,24.1-19.7,31.8-34
			c7.7-14.4,11.5-30.8,11.5-49.2c0-18.4-3.8-34.8-11.5-49.2C963.9,174.5,953.3,163.1,939.8,154.8z M919.2,260.3
			c-3.5,6.6-8.4,11.7-14.6,15.5c-6.2,3.8-13.4,5.7-21.8,5.7c-7.8,0-14.9-1.9-21.2-5.7c-6.3-3.8-11.2-8.9-14.6-15.5
			c-3.4-6.6-5.1-14-5.1-22.3c0-8.6,1.8-16.1,5.3-22.7c3.5-6.6,8.4-11.7,14.6-15.3c6.2-3.7,13.3-5.5,21.4-5.5
			c8.1,0,15.2,1.8,21.4,5.5c6.2,3.7,11,8.8,14.6,15.3c3.5,6.6,5.3,14.1,5.3,22.7C924.5,246.3,922.8,253.8,919.2,260.3z"/>
		<polygon class="st2" points="1134.5,146.1 1092.9,146.1 1092.9,70 1035,70 1035,146.1 993.4,146.1 993.4,195.3 1035,195.3 
			1035,329.9 1092.9,329.9 1092.9,195.3 1134.5,195.3 		"/>
	</g>
	<path class="st1" d="M331.7,376.9C296.9,351.4,193.1,275,193.1,275c-14.6-11.2-13.7-28.5,2.8-36.6c7.6-3.8,16.3-2.7,22.6,2.2
		l50.6,39c7.9,6.1,19.3,5.3,26.2-1.9c11.6-12.2,21.3-26.3,28.6-41.7c3.1-6.5,1.1-14.3-4.6-18.8l-114.1-89.9
		c-15.8-12.2-7.8-37.4,12.1-38.3h0c5-0.2,10,1.3,14,4.4l99.6,77.9c3.4,2.6,8.3,0.2,8.3-4.1l0-0.1c0-89-72.2-161.2-161.2-161.2
		c-11.6,0-23,1.2-33.9,3.6c-5.5,1.2-7.2,8.2-2.7,11.6l38.4,29.6c14.6,11.2,13.7,28.5-2.8,36.6c-7.6,3.8-16.3,2.6-22.6-2.2L91.5,36.8
		c-2.3-1.8-5.5-1.9-7.8-0.2c-19.3,13.9-35.3,32-46.8,53c-1.8,3.3-0.9,7.4,2.1,9.7L167,198.1c14.6,11.2,13.7,28.5-2.8,36.6
		c-7.6,3.8-16.3,2.7-22.6-2.2l-111.4-86c-4.8-3.7-11.9-0.7-12.5,5.4c-0.3,2.7-0.5,5.5-0.6,8.2c-0.1,0.7-0.2,1.4-0.2,2.2v238.7
		c0,3.6,2.9,6.6,6.6,6.6h108.4c6.8,0,9.7-8.6,4.4-12.8l-59.7-46.1c-15.9-12.3-7.2-37.7,12.9-37.7h0c5.4,0,10.6,1.8,14.8,5
		l113.8,87.8c3.1,2.4,7,3.7,10.9,3.7h92.8c9.3,0,16.9-7.6,16.9-16.9v0C338.6,385.2,336.1,380.1,331.7,376.9z"/>
</g>
</svg>
