<svg width="48" height="48" viewBox="0 0 48 48" fill="none" xmlns="http://www.w3.org/2000/svg">
  <path
    d="M34.1691 3.26187C36.8925 4.22633 39.3993 5.7177 41.5463 7.65084L34.1859 15.8254C33.1123 14.8588 31.859 14.1131 30.4972 13.631C29.1356 13.1488 27.6923 12.9395 26.2497 13.0151C24.8072 13.0907 23.3937 13.4497 22.0899 14.0716C20.786 14.6934 19.6174 15.5661 18.6508 16.6396L10.4762 9.27915C12.4094 7.13218 14.7466 5.38694 17.3542 4.14311C19.9619 2.89936 22.7889 2.18142 25.674 2.03012C28.5592 1.87901 31.4457 2.29752 34.1691 3.26187Z"
    fill="#F1682D" />
  <path
    d="M10.4762 9.27915C8.54309 11.4261 7.05172 13.933 6.08727 16.6563C5.12291 19.3797 4.7044 22.2663 4.85552 25.1514C5.00681 28.0366 5.72475 30.8636 6.9685 33.4712C8.21233 36.0788 9.95757 38.4161 12.1045 40.3492C14.2515 42.2824 16.7584 43.7737 19.4817 44.7382C22.2051 45.7025 25.0916 46.121 27.9768 45.9699C30.862 45.8186 33.689 45.1007 36.2966 43.8569C38.9042 42.6131 41.2415 40.8679 43.1746 38.7209L35 31.3605C34.0334 32.434 32.8649 33.3066 31.561 33.9284C30.2572 34.5504 28.8437 34.9094 27.4011 34.985C25.9586 35.0606 24.5153 34.8513 23.1536 34.3691C21.7919 33.8869 20.5385 33.1412 19.465 32.1746C18.3915 31.208 17.5188 30.0395 16.897 28.7356C16.2751 27.4318 15.9161 26.0183 15.8405 24.5757C15.7649 23.1332 15.9742 21.6899 16.4564 20.3282C16.9385 18.9665 17.6842 17.7131 18.6508 16.6396L10.4762 9.27915Z"
    fill="#FFCC01" />
  <path
    d="M31.5093 18.798C28.6363 16.2112 24.2103 16.4431 21.6234 19.3161L32.0274 28.6839C34.6143 25.8109 34.3823 21.3849 31.5093 18.798Z"
    fill="#FFCC01" />
  <path
    d="M22.1415 29.202C19.2685 26.6152 19.0366 22.1891 21.6234 19.3161L32.0274 28.6839C29.4406 31.5569 25.0145 31.7889 22.1415 29.202Z"
    fill="#F1682D" />
</svg>